<mxfile host="app.diagrams.net" agent="Mozilla/5.0 (Windows NT 10.0; Win64; x64) AppleWebKit/537.36 (KHTML, like Gecko) Chrome/134.0.0.0 Safari/537.36 Edg/134.0.0.0" version="26.1.0">
  <diagram name="第 1 页" id="Ba2pgPn5LMqD9jY-gNNH">
    <mxGraphModel dx="1213" dy="768" grid="1" gridSize="10" guides="1" tooltips="1" connect="1" arrows="1" fold="1" page="1" pageScale="1" pageWidth="1169" pageHeight="827" math="0" shadow="0">
      <root>
        <mxCell id="0" />
        <mxCell id="1" parent="0" />
        <mxCell id="qomddrIA614ZR-gxxKsT-59" value="" style="rounded=0;whiteSpace=wrap;html=1;dashed=1;dashPattern=8 8;movable=1;resizable=1;rotatable=1;deletable=1;editable=1;locked=0;connectable=1;fillColor=#F7F7F7;" parent="1" vertex="1">
          <mxGeometry x="60" y="160" width="860" height="500" as="geometry" />
        </mxCell>
        <mxCell id="qomddrIA614ZR-gxxKsT-1" value="" style="rounded=1;whiteSpace=wrap;html=1;fillColor=#dae8fc;strokeColor=#6c8ebf;" parent="1" vertex="1">
          <mxGeometry x="160" y="580" width="80" height="40" as="geometry" />
        </mxCell>
        <mxCell id="qomddrIA614ZR-gxxKsT-3" value="" style="rounded=1;whiteSpace=wrap;html=1;fillColor=#dae8fc;strokeColor=#6c8ebf;" parent="1" vertex="1">
          <mxGeometry x="520" y="585" width="80" height="40" as="geometry" />
        </mxCell>
        <mxCell id="qomddrIA614ZR-gxxKsT-19" style="edgeStyle=orthogonalEdgeStyle;rounded=0;orthogonalLoop=1;jettySize=auto;html=1;exitX=0.5;exitY=0;exitDx=0;exitDy=0;" parent="1" source="qomddrIA614ZR-gxxKsT-4" target="qomddrIA614ZR-gxxKsT-6" edge="1">
          <mxGeometry relative="1" as="geometry" />
        </mxCell>
        <mxCell id="qomddrIA614ZR-gxxKsT-4" value="" style="rounded=1;whiteSpace=wrap;html=1;fillColor=#dae8fc;strokeColor=#6c8ebf;" parent="1" vertex="1">
          <mxGeometry x="340" y="580" width="80" height="40" as="geometry" />
        </mxCell>
        <mxCell id="qomddrIA614ZR-gxxKsT-5" value="" style="rounded=1;whiteSpace=wrap;html=1;fillColor=#dae8fc;strokeColor=#6c8ebf;" parent="1" vertex="1">
          <mxGeometry x="250" y="580" width="80" height="40" as="geometry" />
        </mxCell>
        <mxCell id="qomddrIA614ZR-gxxKsT-32" style="edgeStyle=orthogonalEdgeStyle;rounded=0;orthogonalLoop=1;jettySize=auto;html=1;exitX=0.33;exitY=0;exitDx=0;exitDy=0;exitPerimeter=0;entryX=0.5;entryY=1;entryDx=0;entryDy=0;" parent="1" source="qomddrIA614ZR-gxxKsT-6" target="qomddrIA614ZR-gxxKsT-31" edge="1">
          <mxGeometry relative="1" as="geometry" />
        </mxCell>
        <mxCell id="qomddrIA614ZR-gxxKsT-34" style="edgeStyle=orthogonalEdgeStyle;rounded=0;orthogonalLoop=1;jettySize=auto;html=1;exitX=0.5;exitY=0;exitDx=0;exitDy=0;exitPerimeter=0;entryX=0.5;entryY=1;entryDx=0;entryDy=0;" parent="1" source="qomddrIA614ZR-gxxKsT-6" target="qomddrIA614ZR-gxxKsT-33" edge="1">
          <mxGeometry relative="1" as="geometry" />
        </mxCell>
        <mxCell id="MhotOzjmQ4NwVa9XO380-14" style="edgeStyle=orthogonalEdgeStyle;rounded=0;orthogonalLoop=1;jettySize=auto;html=1;exitX=0.846;exitY=0.076;exitDx=0;exitDy=0;exitPerimeter=0;entryX=0.5;entryY=1;entryDx=0;entryDy=0;" parent="1" source="qomddrIA614ZR-gxxKsT-6" target="qomddrIA614ZR-gxxKsT-36" edge="1">
          <mxGeometry relative="1" as="geometry" />
        </mxCell>
        <mxCell id="qomddrIA614ZR-gxxKsT-6" value="Embedding 3" style="rounded=1;whiteSpace=wrap;html=1;points=[[0,0,0,0,0],[0,0.25,0,0,0],[0,0.5,0,0,0],[0,0.75,0,0,0],[0,1,0,0,0],[0.11,0,0,0,0],[0.11,1,0,0,0],[0.17,0,0,0,0],[0.17,1,0,0,0],[0.22,0,0,0,0],[0.22,1,0,0,0],[0.25,0,0,0,0],[0.25,1,0,0,0],[0.33,0,0,0,0],[0.33,1,0,0,0],[0.44,0,0,0,0],[0.44,1,0,0,0],[0.5,0,0,0,0],[0.5,1,0,0,0],[0.56,0,0,0,0],[0.56,1,0,0,0],[0.67,0,0,0,0],[0.67,1,0,0,0],[0.75,0,0,0,0],[0.75,1,0,0,0],[0.78,0,0,0,0],[0.78,1,0,0,0],[0.83,0,0,0,0],[0.83,1,0,0,0],[0.89,0,0,0,0],[0.89,1,0,0,0],[1,0,0,0,0],[1,0.25,0,0,0],[1,0.5,0,0,0],[1,0.75,0,0,0],[1,1,0,0,0]];fillColor=#C6C6C6;fontColor=#333333;strokeColor=#666666;" parent="1" vertex="1">
          <mxGeometry x="120" y="510" width="520" height="40" as="geometry" />
        </mxCell>
        <mxCell id="qomddrIA614ZR-gxxKsT-7" value="" style="endArrow=none;dashed=1;html=1;dashPattern=1 3;strokeWidth=2;rounded=0;" parent="1" edge="1">
          <mxGeometry width="50" height="50" relative="1" as="geometry">
            <mxPoint x="440" y="599.58" as="sourcePoint" />
            <mxPoint x="510" y="599.58" as="targetPoint" />
          </mxGeometry>
        </mxCell>
        <mxCell id="qomddrIA614ZR-gxxKsT-21" style="edgeStyle=orthogonalEdgeStyle;rounded=0;orthogonalLoop=1;jettySize=auto;html=1;exitX=0.5;exitY=0;exitDx=0;exitDy=0;entryX=0.33;entryY=1;entryDx=0;entryDy=0;entryPerimeter=0;" parent="1" source="qomddrIA614ZR-gxxKsT-5" target="qomddrIA614ZR-gxxKsT-6" edge="1">
          <mxGeometry relative="1" as="geometry" />
        </mxCell>
        <mxCell id="qomddrIA614ZR-gxxKsT-24" style="edgeStyle=orthogonalEdgeStyle;rounded=0;orthogonalLoop=1;jettySize=auto;html=1;exitX=0.5;exitY=0;exitDx=0;exitDy=0;entryX=0.17;entryY=1;entryDx=0;entryDy=0;entryPerimeter=0;" parent="1" source="qomddrIA614ZR-gxxKsT-1" target="qomddrIA614ZR-gxxKsT-6" edge="1">
          <mxGeometry relative="1" as="geometry" />
        </mxCell>
        <mxCell id="qomddrIA614ZR-gxxKsT-44" style="rounded=0;orthogonalLoop=1;jettySize=auto;html=1;exitX=0.5;exitY=0;exitDx=0;exitDy=0;entryX=0.5;entryY=1;entryDx=0;entryDy=0;" parent="1" source="qomddrIA614ZR-gxxKsT-29" target="qomddrIA614ZR-gxxKsT-42" edge="1">
          <mxGeometry relative="1" as="geometry" />
        </mxCell>
        <mxCell id="qomddrIA614ZR-gxxKsT-29" value="" style="rounded=1;whiteSpace=wrap;html=1;fillColor=#fff2cc;strokeColor=#d6b656;" parent="1" vertex="1">
          <mxGeometry x="160" y="440" width="80" height="40" as="geometry" />
        </mxCell>
        <mxCell id="qomddrIA614ZR-gxxKsT-30" style="edgeStyle=orthogonalEdgeStyle;rounded=0;orthogonalLoop=1;jettySize=auto;html=1;exitX=0.17;exitY=0;exitDx=0;exitDy=0;exitPerimeter=0;entryX=0.596;entryY=0.925;entryDx=0;entryDy=0;entryPerimeter=0;" parent="1" source="qomddrIA614ZR-gxxKsT-6" target="qomddrIA614ZR-gxxKsT-29" edge="1">
          <mxGeometry relative="1" as="geometry" />
        </mxCell>
        <mxCell id="qomddrIA614ZR-gxxKsT-45" style="rounded=0;orthogonalLoop=1;jettySize=auto;html=1;exitX=0.5;exitY=0;exitDx=0;exitDy=0;entryX=0.5;entryY=1;entryDx=0;entryDy=0;" parent="1" source="qomddrIA614ZR-gxxKsT-31" target="qomddrIA614ZR-gxxKsT-42" edge="1">
          <mxGeometry relative="1" as="geometry" />
        </mxCell>
        <mxCell id="qomddrIA614ZR-gxxKsT-31" value="" style="rounded=1;whiteSpace=wrap;html=1;fillColor=#fff2cc;strokeColor=#d6b656;" parent="1" vertex="1">
          <mxGeometry x="250" y="440" width="80" height="40" as="geometry" />
        </mxCell>
        <mxCell id="qomddrIA614ZR-gxxKsT-46" style="rounded=0;orthogonalLoop=1;jettySize=auto;html=1;exitX=0.5;exitY=0;exitDx=0;exitDy=0;" parent="1" source="qomddrIA614ZR-gxxKsT-33" edge="1">
          <mxGeometry relative="1" as="geometry">
            <mxPoint x="380" y="390" as="targetPoint" />
          </mxGeometry>
        </mxCell>
        <mxCell id="qomddrIA614ZR-gxxKsT-33" value="" style="rounded=1;whiteSpace=wrap;html=1;fillColor=#fff2cc;strokeColor=#d6b656;" parent="1" vertex="1">
          <mxGeometry x="340" y="440" width="80" height="40" as="geometry" />
        </mxCell>
        <mxCell id="qomddrIA614ZR-gxxKsT-35" value="" style="endArrow=none;dashed=1;html=1;dashPattern=1 3;strokeWidth=2;rounded=0;" parent="1" edge="1">
          <mxGeometry width="50" height="50" relative="1" as="geometry">
            <mxPoint x="440" y="459.58" as="sourcePoint" />
            <mxPoint x="510" y="459.58" as="targetPoint" />
          </mxGeometry>
        </mxCell>
        <mxCell id="qomddrIA614ZR-gxxKsT-47" style="rounded=0;orthogonalLoop=1;jettySize=auto;html=1;exitX=0.5;exitY=0;exitDx=0;exitDy=0;entryX=0.5;entryY=1;entryDx=0;entryDy=0;" parent="1" source="qomddrIA614ZR-gxxKsT-36" target="qomddrIA614ZR-gxxKsT-42" edge="1">
          <mxGeometry relative="1" as="geometry" />
        </mxCell>
        <mxCell id="qomddrIA614ZR-gxxKsT-36" value="" style="rounded=1;whiteSpace=wrap;html=1;fillColor=#fff2cc;strokeColor=#d6b656;" parent="1" vertex="1">
          <mxGeometry x="520" y="440" width="80" height="40" as="geometry" />
        </mxCell>
        <mxCell id="qomddrIA614ZR-gxxKsT-38" value="" style="labelPosition=right;align=left;strokeWidth=1;shape=mxgraph.mockup.markup.curlyBrace;html=1;shadow=0;dashed=0;strokeColor=#000000;direction=north;" parent="1" vertex="1">
          <mxGeometry x="120" y="580" width="20" height="40" as="geometry" />
        </mxCell>
        <mxCell id="qomddrIA614ZR-gxxKsT-39" value="" style="labelPosition=right;align=left;strokeWidth=1;shape=mxgraph.mockup.markup.curlyBrace;html=1;shadow=0;dashed=0;strokeColor=#000000;direction=north;" parent="1" vertex="1">
          <mxGeometry x="120" y="440" width="20" height="40" as="geometry" />
        </mxCell>
        <mxCell id="qomddrIA614ZR-gxxKsT-40" value="Vectors" style="text;html=1;align=center;verticalAlign=middle;whiteSpace=wrap;rounded=0;" parent="1" vertex="1">
          <mxGeometry x="60" y="445" width="60" height="30" as="geometry" />
        </mxCell>
        <mxCell id="qomddrIA614ZR-gxxKsT-41" value="Entity" style="text;html=1;align=center;verticalAlign=middle;whiteSpace=wrap;rounded=0;" parent="1" vertex="1">
          <mxGeometry x="60" y="585" width="60" height="30" as="geometry" />
        </mxCell>
        <mxCell id="qomddrIA614ZR-gxxKsT-58" value="" style="edgeStyle=orthogonalEdgeStyle;rounded=0;orthogonalLoop=1;jettySize=auto;html=1;" parent="1" source="qomddrIA614ZR-gxxKsT-42" target="qomddrIA614ZR-gxxKsT-57" edge="1">
          <mxGeometry relative="1" as="geometry" />
        </mxCell>
        <mxCell id="qomddrIA614ZR-gxxKsT-42" value="K-means Caculator" style="rounded=1;whiteSpace=wrap;html=1;fillColor=#ffe6cc;strokeColor=#d79b00;" parent="1" vertex="1">
          <mxGeometry x="290" y="330" width="180" height="60" as="geometry" />
        </mxCell>
        <mxCell id="qomddrIA614ZR-gxxKsT-43" value="" style="rounded=1;whiteSpace=wrap;html=1;dashed=1;fillColor=#d5e8d4;strokeColor=#82b366;movable=0;resizable=0;rotatable=0;deletable=0;editable=0;locked=1;connectable=0;strokeWidth=2;" parent="1" vertex="1">
          <mxGeometry x="650" y="240" width="250" height="390" as="geometry" />
        </mxCell>
        <mxCell id="qomddrIA614ZR-gxxKsT-52" value="" style="edgeStyle=orthogonalEdgeStyle;rounded=0;orthogonalLoop=1;jettySize=auto;html=1;" parent="1" source="qomddrIA614ZR-gxxKsT-50" target="qomddrIA614ZR-gxxKsT-51" edge="1">
          <mxGeometry relative="1" as="geometry" />
        </mxCell>
        <mxCell id="qomddrIA614ZR-gxxKsT-50" value="Read Embedding Data" style="rounded=1;whiteSpace=wrap;html=1;fillColor=#e1d5e7;strokeColor=#9673a6;" parent="1" vertex="1">
          <mxGeometry x="701.25" y="310" width="147.5" height="50" as="geometry" />
        </mxCell>
        <mxCell id="qomddrIA614ZR-gxxKsT-54" value="" style="edgeStyle=orthogonalEdgeStyle;rounded=0;orthogonalLoop=1;jettySize=auto;html=1;" parent="1" source="qomddrIA614ZR-gxxKsT-51" target="qomddrIA614ZR-gxxKsT-53" edge="1">
          <mxGeometry relative="1" as="geometry" />
        </mxCell>
        <mxCell id="qomddrIA614ZR-gxxKsT-51" value="Elbow Method &amp;amp; Silhouette Score" style="rounded=1;whiteSpace=wrap;html=1;fillColor=#e1d5e7;strokeColor=#9673a6;" parent="1" vertex="1">
          <mxGeometry x="680" y="390" width="190" height="46" as="geometry" />
        </mxCell>
        <mxCell id="qomddrIA614ZR-gxxKsT-56" value="" style="edgeStyle=orthogonalEdgeStyle;rounded=0;orthogonalLoop=1;jettySize=auto;html=1;" parent="1" source="qomddrIA614ZR-gxxKsT-53" target="qomddrIA614ZR-gxxKsT-55" edge="1">
          <mxGeometry relative="1" as="geometry" />
        </mxCell>
        <mxCell id="qomddrIA614ZR-gxxKsT-53" value="Select the best K value" style="rounded=1;whiteSpace=wrap;html=1;fillColor=#e1d5e7;strokeColor=#9673a6;" parent="1" vertex="1">
          <mxGeometry x="680" y="470" width="190" height="46" as="geometry" />
        </mxCell>
        <mxCell id="qomddrIA614ZR-gxxKsT-55" value="K-means clustering" style="rounded=1;whiteSpace=wrap;html=1;fillColor=#e1d5e7;strokeColor=#9673a6;" parent="1" vertex="1">
          <mxGeometry x="680" y="549" width="190" height="46" as="geometry" />
        </mxCell>
        <mxCell id="qomddrIA614ZR-gxxKsT-57" value="" style="rounded=1;whiteSpace=wrap;html=1;fillColor=#f9f7ed;strokeColor=#36393d;dashed=1;dashPattern=8 8;" parent="1" vertex="1">
          <mxGeometry x="130" y="200" width="500" height="100" as="geometry" />
        </mxCell>
        <mxCell id="qomddrIA614ZR-gxxKsT-60" value="" style="html=1;shadow=0;dashed=0;align=center;verticalAlign=middle;shape=mxgraph.arrows2.stripedArrow;dy=0.6;dx=40;notch=25;fillColor=#bac8d3;strokeColor=none;" parent="1" vertex="1">
          <mxGeometry x="520" y="330" width="90" height="40" as="geometry" />
        </mxCell>
        <mxCell id="MhotOzjmQ4NwVa9XO380-3" value="" style="edgeStyle=orthogonalEdgeStyle;rounded=0;orthogonalLoop=1;jettySize=auto;html=1;" parent="1" source="MhotOzjmQ4NwVa9XO380-1" target="MhotOzjmQ4NwVa9XO380-2" edge="1">
          <mxGeometry relative="1" as="geometry" />
        </mxCell>
        <mxCell id="MhotOzjmQ4NwVa9XO380-1" value="Cluster&lt;div&gt;Results&lt;/div&gt;" style="rounded=1;whiteSpace=wrap;html=1;fillColor=#ffcccc;strokeColor=#36393d;" parent="1" vertex="1">
          <mxGeometry x="160" y="220" width="90" height="60" as="geometry" />
        </mxCell>
        <mxCell id="MhotOzjmQ4NwVa9XO380-5" value="" style="edgeStyle=orthogonalEdgeStyle;rounded=0;orthogonalLoop=1;jettySize=auto;html=1;" parent="1" source="MhotOzjmQ4NwVa9XO380-2" target="MhotOzjmQ4NwVa9XO380-4" edge="1">
          <mxGeometry relative="1" as="geometry" />
        </mxCell>
        <mxCell id="MhotOzjmQ4NwVa9XO380-2" value="LLM&lt;div&gt;Name the cluster&lt;/div&gt;" style="rounded=1;whiteSpace=wrap;html=1;fillColor=#ffcccc;strokeColor=#36393d;" parent="1" vertex="1">
          <mxGeometry x="300" y="220" width="140" height="60" as="geometry" />
        </mxCell>
        <mxCell id="MhotOzjmQ4NwVa9XO380-4" value="Save to JSON" style="rounded=1;whiteSpace=wrap;html=1;fillColor=#ffcccc;strokeColor=#36393d;" parent="1" vertex="1">
          <mxGeometry x="470" y="220" width="140" height="60" as="geometry" />
        </mxCell>
        <mxCell id="MhotOzjmQ4NwVa9XO380-6" value="&lt;b&gt;&lt;font style=&quot;font-size: 17px;&quot;&gt;Detail&lt;/font&gt;&lt;/b&gt;" style="text;html=1;align=center;verticalAlign=middle;whiteSpace=wrap;rounded=0;" parent="1" vertex="1">
          <mxGeometry x="747.5" y="260" width="55" height="40" as="geometry" />
        </mxCell>
        <mxCell id="MhotOzjmQ4NwVa9XO380-8" value="" style="shape=image;verticalLabelPosition=bottom;labelBackgroundColor=default;verticalAlign=top;aspect=fixed;imageAspect=0;image=data:image/png,iVBORw0KGgoAAAANSUhEUgAAAMgAAADICAYAAACtWK6eAAAAAXNSR0IArs4c6QAAC45JREFUeF7tnW1u2zgQhin0IE1u0pxkm0NYgH+1/VVAOUSzJ2n2JPXeo4K3zMqok9oRP2bIIfUEKLDADofi+85jjWRaGhx/KIACVxUY0AYFUOC6AgBCdaDAGwoACOWBAgBCDaBAmgKcQdJ0Y9RGFACQjRjNMtMUAJA03Ri1EQUAZCNGs8w0BQAkTTdGbUQBANmI0SwzTQEASdONURtRoGlAHh4ePhyPxxvv1TAM751z//j//vnz52G/3x824qGZZZ77sXhyaN2L5gBZTPjLOffBOfcMx5W/p3me7wFFl5+vX7/evHv37tOKH/7DyvvxpTU/mgHkzIiPkZY/tmhM5BqrhE/T9M0517UfTQCywPF95YzxVpEc5nm+a+3Tq0rVB0y6+OHh8GfxlL9m/DAPyGLGjxQXXo+Z5/kWSPKU3JofpgEROHO8roZmPrnyylhntCQcyxGa98M0IA8PD5+Ox+NnSbuHYfi82+2+SObcQi4FOJ5ls+6HWUC0DPGm0GrFIa3phXU/zAKicfY4K4vHcRzv48pkm9HacCyqmvXDLCDTNB01S5KzyLq6Aner1idZIqz6YRKQEp9awzDc7Xa7p2AHNxZYEo7lWsSkHyYBmabJf/nk77Nr/t2P4/ioOUGruUvDsehk0g+TgChff5zq1qQhFqCapsl/KZv6JWDqEkz6sVlArN9eTK2y3HGV4DB7uxdAciuqo/G14KDFiiyiEi0WZ5CXplSGw59BuEgP5QRAQpWSiasNx68dwYdxHG9lViObhRZLVs/mshmAw2vGF4UxlcMZJEat9FgjcJje+sMZJL2+mh5pBQ7/S8NxHO+sigkgVp1RPC5DcJi99jjJDyCKhWgxdeLPZFWWYvXO1fliAUTFeptJgSPeFwCJ16zJEcCRZhuApOnW1CjgSLcLQNK1a2JkoZ3RQVq0cM3xeiEAEmRtm0HAke8bgORraDIDcMjYAiAyOprKYgkO55zJ33mEGgYgoUo1Erc8u9j/4MnCX9NweAEBxEIZCR0DcAgJeZYGQOQ1rZIROHRkBxAdXYtmNQaH2a3rKaYASIpqhsYAh64ZAKKrr2p24FCV9zk5gOhrrDIDcKjI+kdSACmjs+gsxuAw/YOnXOEBJFfBwuNLPJY1Ykldw0GL1dh7QoAjAl2hUM4gQkJqpwEObYUv5weQOrpHzQocUXKJBgOIqJzyyYBDXtOYjAASo1bh2EqvIbi2yu4vyC8tHEAKF33odMARqpRuHIDo6puU3Rgc5p9dlSRy4CAACRSqVBhwlFI6bB4ACdOpWBRPPSwmddBEABIkU5kg4Cijc8wsABKjlmIscCiKm5EaQDLEkxpqCY5hGO55PfZvZwFEqsoT8wBHonCFhgFIIaEvTQMcFcUPnBpAAoWSDgMOaUV18gGIjq5vZjUEh9m3y1aw5eKUAFLYCZ60XljwzOkAJFPAmOHAEaOWjVgAKeQDcBQSWngaABEW9Mrdqm/OuY8FplqdosV3dKwuSjEAQBTF9alLvPM9dAnAEarU7zgAidcseISl1xAAR7BtLwIBJE231VHAsSpREwEAomCTJThaf4GNgj1RKQEkSq71YOBY16ilCAARdMvYI0Gbf7uToDXJqQAkWbqXA4FDSEhjaQBEwBBLcAzD8HnX2CNVBSxQSwEgmdJagsM519XbnTKtERkOIBkyAkeGeI0MBZBEo4AjUbjGhgFIgmHAkSBao0MAJNI4Y3Bs8nm5kZZlhQNIhHw8aT1CrE5CASTQSOAIFKqzMAAJMBQ4AkTqNARAVowFjk4rP3BZAPKGUMARWEUdhwHIFXONvYaAu1WVIASQC8Ibg8Mf4WGe57v9fn+oVCebnRZAXllvEI7nI2QTYh1GAeRMd6twnA4RSMpDAiBnmlt6JOi1Upjn+ZZWqxwoALJo3QIcy6Gypb0cHw5AnHMNwcH1SEE4nq/9Cs8XNF2Jh62d+vnW4DgJSKsVVErZQZsG5Hg8fnDO+X8t/nHrt4BrmwWkgLbqU3BXS13i7bZY+tKWmYFWS1dnziC6+pbITqulqDKAKIpbKjWtlp7SAKKnbdHMPL1dR24A0dG1RlZaLQXVAURB1FopabXklQcQeU2rZgQSWfkBRFZPE9m49StnA4DIaWkpExsahdwAECEhL6Xx7c7xePRvt71RnOZialotGcUBREbHS1meX2BTYuPltSXQauWbCyD5Gv6R4fWnd0VIuPWb6S+AZAp4YfjF/n+aph+0WvJia2cEEFmFr14cLw+9/lYDElqtdJMBJF271yNX7xzRasmJXSoTgMgovQrHaRpaLRnBS2UBkHylo556uDxa6HuNVosNjfFmA0i8ZucjouA4DaTVyhO95GgASVc7CQ5arXTBa4wEkDTVs+DwU1ZutXiXeqDvABIo1FlYNhwGWi3Hrd8w4wEkTKdTlBgcZ62W/27E79cq/Rd85630gVmaD0DC3RCHg1YrXPxakQASprwKHLRaYeLXjAKQdfUP4zjeroflRXDrN08/rdEA8rayReA4ux5hQ6NWpSfmBZDrwhWFwx8GGxoTq1hxGIBcFrc4HAauR/jtyIVaAJA/RakGB62W4qkgMTWAvBTuMAzD/W63e0rUU2RY5W/Z72qvX0REoSQA8ltIE3DQaglVtlAaAPlfSFNw0GoJVbdAGgAxCof3tnKrxYbGLb+j8PThYv1HRBW/QGRD49YBsQ7HWavFhkaBdiklxWZbrJaePEirlVLaMmMAREZH9Sy0WuoSX5wAQOronjRrRUg2+y07gCSVar1BPDaorPYAUlbv7NnY0JgtYVQCAImSy0YwrVY5HwCknNaiM9Fqicp5NRmAlNFZfJbKt343s6ERQMRLt1xCWi19rQFEX2PVGWi1VOV1AKKrr3r2yq1W9xsaAUS9hPUnqNhqdb+hEUD067fIDNM01drQqPrMsCLivTEJgNR2QGh+Wi0hIV+lARAdXatkpdWSlx1A5DWtmrEiJF1uaASQquWsMzm3fuV0BRA5Lc1kYkOjnBUAIqelqUy0WjJ2AIiMjiaz0Grl2wIg+RqazVD51m8XGxoBxGx5yxwYrVaejgCSp18To2m10m0CkHTtmhlZudVqekMjgDRT5nkHWrHVanpDI4Dk1V1To9nQGG8XgMRr1vQIrkfi7AOQOL2aj6bVirMQQOL06iK6IiTNbWgEkC5KPn4RtFphmgFImE7dRbGhMcxSAAnTqcsoWq11WwFkXaOuI2i13rYXQLou//XFVf6W3fyGRgBZr6HuI2i1rlsMIN2Xf9gCabUu6wQgYfXTfVTNVmue59v9fn+wKDKAWHSl0jFVbLUex3G8r7TsN6cFEIuuVDymSpAcxnG8rbjsq1MDiEVXKh9TjesRq20WgFQuRovTT9P00Tnnn/Vb8u9+HMfHkhOGzAUgISptMKZCqwUgoXVW4hNsGIamfwoaqmVOXMlWy6ofJs8gJQBxzpn8xMopaOmxhW/9mvTDJCDLTtPv0oaf5xuGwfw2B831h+Yu1WpZ9cMkIN485dO72duKoYVbMk7ZC78Us35YBkTtjUlW+92SRR8zl3arZdkPs4BotllW77nHFG3pWM1Wy7IfZgFZ2izxs4jlT6vSRR873zRN/rrwQ+y4lXjT7zg0DYjCqd1srytcdCrptuiHaUC8y5KmWL1TolLNSkm35od5QLzPAg8YOAzDcL/b7Z6U6mZTabfkRxOAnJ1JPv26Jej3CcX8md1KHbMIa7HLmcRfI8ZekzTlRzOAnApk+fTyoNws/67VzuMwDH9z1tBFq3c/mgPk3O7FnJthGN4fj8d//f+b5/nJ6q/TdEu1fvZzP/zReE9a96NpQOqXBEfQuwIA0rvDrC9LAQDJko/BvSsAIL07zPqyFACQLPkY3LsCANK7w6wvSwEAyZKPwb0rACC9O8z6shQAkCz5GNy7AgDSu8OsL0sBAMmSj8G9KwAgvTvM+rIU+A8AFRhfjONN6wAAAABJRU5ErkJggg==;" parent="1" vertex="1">
          <mxGeometry x="650" y="480" width="25" height="25" as="geometry" />
        </mxCell>
        <mxCell id="MhotOzjmQ4NwVa9XO380-9" value="" style="shape=image;verticalLabelPosition=bottom;labelBackgroundColor=default;verticalAlign=top;aspect=fixed;imageAspect=0;image=data:image/png,iVBORw0KGgoAAAANSUhEUgAAAMgAAADICAYAAACtWK6eAAAAAXNSR0IArs4c6QAACwVJREFUeF7tnVFynEYQhqF0kNgnsXSSWIeAqn2S9KQqdIjYJ/H6JN7cQxTJpHYdLO/qH4YetmG+rcpL1MD01/1PTw8Y6oofBCBwkUANGwhA4DIBBEJ2QOAdAgiE9IAAAiEHIJBGgAqSxo2jCiGAQAoJNG6mEUAgadw4qhACCKSQQONmGgEEksaNowohgEAKCTRuphFAIGncOKoQAgikkEDjZhoBBJLGjaMKIYBACgk0bqYRQCBp3DiqEAIIpJBA42YaAQSSxo2jCiGAQAoJNG6mEUAgadw4qhACCKSQQONmGgEEksaNowohgEAKCTRuphFAIGncOOoMga7rPldV9amqqtvjnz8YgTpUVXWo63pfVdX319fXw263C/8v+w+BZEe8/Qu8vLw8DMPwuKCnQShf+77f5xYKAlkwqlu71MvLy+0wDN+u6Ne+7/v7nCJBIFeM7povfVxO/eXAh0Pf93e5RIJAHER4bUNwUDl+Q9b3/cccIkEga8vOK4/3+fn5w83NzY8rD+Pc5bNUEgTiMNKeh9R1Xeg5TrtUroZa1/Vj0zRPloNCIJY0N34ux9XjJ3nrpRYC2XhSW7rnuXqM/Lxv2/aLld8IxIpkAefpum5YgZv7tm3vrMaJQKxIbvw8HneuLiG3XGYhkI0ntpV7ju57SJcQiESEgTWBGY+TWDwzNemZrrqu75qmCY+jzP5RQWYjLOMEKQKxSNSu68Ld+vAQZPTP4rqniyGQaOxlGyKQsuOP94IAAiFFIPAOAQRCekAAgfxGgB4EWUQRoIJEYcKoVAIIpNTI43cUAQQShQmjUgkgkFIjj99RBBBIFCaMSiWAQEqNPH5HEUAgUZgwKpUAAik18vgdRQCBRGHCqFQCCKTUyON3FAEEEoUJo1IJIJBSI4/fUQQQSBQmjEolgEBKjTx+RxFAIFGYMCqVAAIpNfKZ/R59dSlcadLbOd4b2tJfW0IgmROlpNMfX7L2sOBLnvd1XT9ZvermXKwQSEkZnNHXK7+/NtsXlxBIxqQp4dTHN5+Hdzhd+9MAWb6TgUBKyOJMPjr8LIC5SBBIpuQp4bRXXlZdQmwqEgRSQiZn8DElcTIM4+wpLb+4lOKnxStAefXoUtmS4ToOl1a/eWn1pnMEkiGBtn7KlKRZmolVFUnxlQqydLSdXa/ruvC1V7Obf5ncM/niEgLJFJ2tnnYNy6sTe4tlFgLZaiZn8mtNnySzWOogkEyJtNXTrumTZFVVzf7yKwLZaiZn8itFIBYNc0qiIpD0JODt7onsEIgGZ7G04z6I5uzSAoHosCAQzWizFghEhxaBaEabtUAgOrQIRDParAUC0aFFIJrRZi0QiA4tAtGMNmuBQHRoEYhmtFkLBKJDi0A0o81aIBAdWgSiGW3WAoHo0CIQzWizFghEhxaBaEabtUAgOrQIRDParAUC0aFFIJrRZi0QiA4tAtGMNmuBQHRoEYhmtFkLBKJDi0A0o81aIBAdWgSiGW3WAoHo0CIQzWizFghEhxaBaEabtUAgOrQIRDM6axGSq67rPxIPP3vYMAx/932/3+12B8vzXjoXAtGUEYhm9NPi+DaOzwu8iTAIJHxI5imnWBCIDj4C0Yyq4wvWwodlFn9FZ3jNzuvr69ccQkEgOvgIRDBy8t2MLJ8lQyAIRBN4x8KJOE4jNP2YTDgpAtHpQQW5wCjx7X+a+DwLU5EgEB0MBHKGkeeXOlu8+vPkMgJBIJrAGQvv38yw+BQAS6y41KCCvOG0hm9mWFURKogWCQJ5w8hp7/E2kiZfXEIgCEQTeGPRdd0w+aArHGCxzEIgOnBUkBGjNSyvRsOd/UEZBIJANAEEEp4QiP5Z9D+Jy9jZE0LKdakgo9RI3N7d13X9FJ1hZwyHYQiPsCyeqFQQHTUEMl8gX9q2vdeoL1ukCNNiJkcgOmoIBIEsXrlSljp8o1CL+ZKF2TcKU2byf5/wpYJMjB0C0cAsKtfpKghE8z5rwRJLg7NI1M18xJMKEpUwj03TzNqUoIJEcb5rmmavLbUFFUQzooJUVfiHbw/DMDxOwUUFoUmnSX9HMQgEgSAQBBJXVOlBNCeL+y8pSx22eXVs2OYdEbBIVHaxdNKxxGKJxRKLJZaeKYIFSyzNyaJyscSK4sw27wlTijAtEpUl1jKJyo1CHlbUmfbrUnby/Qia9EmIfzHmRmEiOyqIBkeTTpNOk06TrmcKmvQ4Rha9D026Zm1RuU5XYYmleZ+1YImlwVkkKk06TbrONJr08NmM6J+FMKkgMx87p4LofLVIVCoIFURnGhWECjIpS2bunlk0y1QQHTEqyMxE5d+k6yR7a8EulmZmIUx6EHoQnWkzl3YWiUoPQg+SPVF51GQS4l+MuQ+SyI4eRIOjgtCD8KjJOzpBIAgEgSAQXUqDRcq/y2AXK47t2IpdLM3MonKxi8Uuls40drEqmvRJafK/MU26Bmcxk7PNyzavzrSZMznbvJMQs83LoybTEyal96GCsIvFLha7WHGzDbtYmpNF5UqZyVli6dhcsqBJT2RHk67BscRiicUSiyWWnim4URjHiCVWHKexFdu8bPNOyhp6EI3LYmnHnXTupOtMm3n/xSJRqSBUkOyJyi7WJMTcKLToBdjF0klHBWEXi10sdrH0TMEuVhwji8pFk65ZW1QumnSadJ1pNOk87j4pS0bG9CCanMVMzi4Wu1g602bO5OxiTULMLpZFL0AF0UlHBWEXi10sdrH0TMEuVhwji8rFLpZmbVG52MViF0tn2szexyJRadJp0rMnKk36JMQ06RZLHZp0nXRUEJp0mnSadD1T0KTHMbKoXDTpmrVF5aJJp0nXmUaTzqMmk7KER00ep/CymMnZxWIXa0rOhZeEPwzDMClR2cWahJhdLItegF0snXRUkPm7WOEMB41aWnyQFiODawnkOITF/b1WBblGbANjC2GaN+nPz88fbm5ufkxJ1Cva3rdt+2XO9RPfJDnnksnHWiRMSsVMHvDMA/u+/7jb7SwmIrsmPfjUdV0QyKTZfCaLpMMtEmZNAmnbdvYbNEvz17yCHAXyraqq26SsXfAgi4RZ0YRwaNv2owXelUyAZv7+t1yzAHc6R+IOi+UQYs61b9v2LsZQ2aRsQapzWv/dot86janrOvcToKW/5gJZw6xqsbw6Jcyx7wpJ43ZZabkeX8Eyy7R6ZBGI8ypiDtBzFbGeTb1PgDn8NV1ijUqxy2bdsnqsoIqYTwbBZ8dVM4u/WQTiEWIOcYx6r9thGMKTvW6WWpn9Tbmbb91ejc936Pv+zmprd3ziLAIJFziuV70kzez7Hiq6x/sEDx5EklMcbzZkPjvw91DX9X3TNHsVo5S/ZxOIk3KcFd5b4A4mhdL83fd9f5+jcpxim1Ugo54kzDSLzq45GrbYGehK1SR7lbzk/3GjItz/WmqJGe6SP819GiImnosIZLxWr6rq0zAMY5hWUEOJDeC+LwEuBu6xovx5TJyTnxb+Bj9P/3nzN0yE4Rf8tPA1nOunv3Vdf821nDoX00UFEpNU2EDAEwEE4ikajMUdAQTiLiQMyBMBBOIpGozFHQEE4i4kDMgTAQTiKRqMxR0BBOIuJAzIEwEE4ikajMUdAQTiLiQMyBMBBOIpGozFHQEE4i4kDMgTAQTiKRqMxR0BBOIuJAzIEwEE4ikajMUdAQTiLiQMyBMBBOIpGozFHQEE4i4kDMgTAQTiKRqMxR0BBOIuJAzIEwEE4ikajMUdAQTiLiQMyBMBBOIpGozFHQEE4i4kDMgTgX8AmbFkyFomXyIAAAAASUVORK5CYII=;" parent="1" vertex="1">
          <mxGeometry x="650" y="398" width="31.25" height="31.25" as="geometry" />
        </mxCell>
        <mxCell id="MhotOzjmQ4NwVa9XO380-13" style="edgeStyle=orthogonalEdgeStyle;rounded=0;orthogonalLoop=1;jettySize=auto;html=1;exitX=0.5;exitY=0;exitDx=0;exitDy=0;entryX=0.845;entryY=1.104;entryDx=0;entryDy=0;entryPerimeter=0;" parent="1" source="qomddrIA614ZR-gxxKsT-3" target="qomddrIA614ZR-gxxKsT-6" edge="1">
          <mxGeometry relative="1" as="geometry" />
        </mxCell>
        <mxCell id="MhotOzjmQ4NwVa9XO380-16" value="" style="shape=image;verticalLabelPosition=bottom;labelBackgroundColor=default;verticalAlign=top;aspect=fixed;imageAspect=0;image=data:image/png,iVBORw0KGgoAAAANSUhEUgAAAMgAAADICAYAAACtWK6eAAAAAXNSR0IArs4c6QAAC9hJREFUeF7tnYtx3UYMRelOokoSV+KoA3YQqYPtwOrEdiV2J8nDiMwwjB4flsTiezmjkT1acsELHGKX3M+nCQcUgAJ3FfgEbaAAFLivAABBdECBAwUACMIDCgAQxAAUOKcAMsg53XBWEQUASBFH4zbPKQBAzumGs4ooAECKOBq3eU4BAHJON5xVRIFuQOZ5/m2apq/TNP0xTdOv5ee1tfa9iGa4zUIKdAEyz/OfCxx7iQiUt9baayHtcKsFFGADMs8zZYxvB5oQJM/IJAWiptAt9gBCzSrKIEfH99ba50L64VaTK9ADyM9bM4r6H0fHr9baU3LNcHuFFOgB5G+OLrd+CPuanOuhDBSwVIAdzPM8AxBLT6FuEwUAiInsqDSKAgAkiqdgp4kCAMREdlQaRQEAEsVTsNNEAQBiIjsqjaIAAIniKdhpogAAMZEdlUZRAIBE8RTsNFEAgJjIjkqjKABAongKdpooAEBMZEelURQAIFE8BTtNFAAgJrKj0igKABCmp5a5+F+WOTE0L2b9oZmUdKzz83/QvzGzkims82IA5MBBGyhoJuWjyWL7K2GevvPg55gHQD5QaQPGC0fEB2UAioCIVpcAIDvlGYtTnPUVQDmrnOF5AGQj/m3W5F+3/0pkjXsuBSSGwX6magCyqDbPMy1pREsbaRy0htizRkWo45oCAGSaJmU4Vo8Bkmuxq3J2eUAUmlVHjnzBapQqcX66ktKADOyQcx1CfRJa1/iNewLK6SpQHRDOYnijPYLF9kYrfOH6ZQExblrtXYb+yIUgHnlqZUBYC+GNFH9zbWQRJaF7qykJiLPssfoMHfbe6FUoXxUQD32PvXuRRRQCvreKqoB4al5tffYZo4B7Q3hs+XKAHOySNVZp3tXRzOLppFaqIiCcjYDUHLCrCBsQWSl/p96KgGiOuep1NwDpVWxw+YqAeOygr25GR31wwPdeviIgXjvo5DsA0hvBg8sDkMEC914+6xZ2Uef0VwQETaxeak+WzzCnvyIg6KSfDHjuaZnm9AMQrtd1yoUftDhwCoHJdOWKgNASPvQtxOPxHHluiMIYN3VIKgJC61tRP8Tj8dRaWxei82jfXZuUpy2rZdpygJCHlZ3JDvSob7CM9FSBpCogHptZIcdhKTSrjh4wwzWrCoi7ZlbE7DGwQ87NusPn9JcEZGlmecoiw5+E3IjrKTfPs4dvSkNHH1QGhLIIfRPpXZS6J4ZYZYNmj9GrULK0WwoN64+UBcRRFgk5SerW9/A0pm1YFikNyAKJ5ZMwatPKUrN7mWWIluUBMYQk7NwPJ32PPShDsggAef8uQv0Q2j1q5MruW4eGhWN5oHhqXm11FW+uApCNvErv9Ic0BXp6tFfKVpvTD0B20bK826exWtJvt+idPY21+n4lQK3Pnee51Jx+APJBxAk3udQH2I2EyGhYCfeWxJuuAORA+g0otLFO7+Y6qcBYZXLaQV/NE++oAxDms2mBhSD5fbcV9H4baHLSK/Oy4Yo5+/4x/E0WAAkXorYGOwdkkh6VAEBs4y1c7Whi3XEZ98khTXC4CEpuMDrpACR5iF+7PeeAiA9aRBPrWryUO9v5h0LxOf0ApFyIX7vh5W1emTn9AORavJQ822sza0T/F4CUDPFrN+20mTVkjBsAuRYrJc/22MwakT3IuQCkZIhfv2lnWWRI9nAJyDLknGyjRRVoRO06lINGwf6IvPLg9bD0c4Uli6Sf0+8mg3QMM085CNBP6PMtcZJFxCdJbRVwAcjJiUrD0io/RFDypO+khBseA+aAXBR4uEBSnsx8nYs+PCuN+NyPjwwxBURoZT7xr6dnPVb1POEJZhwZVeAw76QLjQwVnyTD8RDK/F8BpUyi2mowyyDCHbyhHTXAwFeg42UL/6LvJU3m9FsCIjn5Xy3l9nq1YnnhJpfpW0tLQCQXPkYzyyGJGeb0WwIiufgYAHEIyNakqHP6swAiPhfZebzdNQ8jEWQ9ZwkImliCvuzoHJu26QVvWeVSloBI7lcuPtVSRX2hSk6+XlV9XSp0q+qXsQSE1pgiSCSOsh8LT8Kxag5IHkSfJSA0Upde9fauWLi/pbIddIxEkHi2Hl/DDBAyS+hjYdmPhBiJkByQBZIruxWVbSIIPVzWCCv7kHmEmGkGWQA5u3lNWTgW3TAS4VF0C/zdHJD1HpYnImWTR/tymIzJEdBa9BJCzavVprL9uEdOcQPIJpusK6jT7+2U2zcqk3nl9EfO2v6duxQs85oA5I5QrgBhOhPF3l9wSA7VwUgEAJKLKzSxdPyJDKKjs3gtwqsblh6JcOQcACIeujoXFPpIuBpbdiTCI28BkEcKOf37MnwcIxEG+weADBZ45OWFPhbiI+GBkwDIyAhWuDYGK44VGYCM1Xf41S/M/y49EoHrGADCVcp5OYxEGOMgADJGV5Or7uZ9YySCgBfKA7JpotCwlu3Puqo8/aafH/S7tUarzOPoVCCqziUB2Thr3WKhx92Y081UK4POpQC50KH9KCQAyh1QMulcBhDhL8/b0AAoGzWy6VwCkIvfCjgNCkDyPsL4yuxQlzqnB0R4UN8jJ5Yd9JdV59SAKDtthaccJJl1TguIQro/yiZlvlJn1zklIAM7io+aWOvfqU/ymn1H3go6ZwVEct1fLhT7cunneQvPanSpczpAjFP+3slp+yNVdM4IiOhiBmcfa8t5abOI9KIRXnVOBYizp9rq83Qd9ko6ZwPEQ98jfV/ESd9DRedsgHhqXm0dmGpaq7Pm1VCd0wAiND/7YlP47ulpmlnVdM4EiORiztKgpNmmep7nUjpnAkRySzcAcn8oeymdMwHisYP+75f11tqTNHUW13PaQR+mcyZAvHbQyXlpvoc47qAP0RmAKD2Gb9s2sLVWMulUNc4BEV+lnu00rjBWgVAt9Z+KboGTqumcCZBSnUeBWD91CaO5H1xbxd8WAhCu9NfKpRm06BwQcZ0zAUJL+NA7eo9Hmu0FnH8oFNc5EyC06Bu96vV4PLXW1oXoPNrHtmlZ0qeMzmkAIQ97Tf9WLy7YUd9ZsJLO2QDx2MxKMw5r5chpM2uIztkAcdfMypY9lkxdRudUgCzO85RFhjzVOltEQ4o7yyLDdM4ICD3d6JsI/TY9MmaPTTOrhM7pAHGURVJNkvroSeMkiwzVOSUgCySj14k9yk7DUr5pSvygcuP56cN1TguIISTiwx28QbG3xwgSFZ2zA0Lt5C83h74oBZmK05TuhV2N8H4gnHrVdE4NyKZDqdHcGp7uOZFjWUYpk6jqXAKQpblFm1rSWC3pt1s0hITGAGHvwvfRDKl0LgPI5gOXVJMLm+bcSVfCTS5TnUsBsnuHT6DQ045+eg5Th/UYal12A0pYnUsCsg2c3d7iR9tA07zyV+ugi1p/VJ3LAxI14GC3jgIAREdn1BJUAQAS1HEwW0cBAKKjM2oJqgAACeo4mK2jAADR0Rm1BFUAgAR1HMzWUQCA6OiMWoIqAECCOg5m6ygAQHR0Ri1BFQAgQR0Hs3UUACA6OqOWoAoAkKCOg9k6CgAQHZ1RS1AFAEhQx8FsHQUAiI7OqCWoAgAkqONgto4CAERHZ9QSVAEAEtRxMFtHAQCiozNqCaoAAAnqOJitowAA0dEZtQRVAIAEdRzM1lEAgOjojFqCKgBAgjoOZusoAEB0dEYtQRUAIEEdB7N1FAAgOjqjlqAKAJCgjoPZOgoAEB2dUUtQBcQBCaoDzM6tAO3pQj+vvTuBAZDcgYG7+68C3ZsfARCEUDUFuvaUBCDVwgP3Swqwt5EGIAiYigrQdnpPnBvvAeTngC2UOTaiDBQQV+C23yQr9lmFyLp5nr+d2BFW/MZwQSggoMBba+2Zc50eQGgHWMoiOKBAdAU+c1/3sgFZsshft98v0dWB/aUVeG6tvXEV6AJkgYQyyVc0t7gSo5wDBcZ/KHRwkzABCqgr0J1B1C1EhVDAUAEAYig+qvavAADx7yNYaKgAADEUH1X7VwCA+PcRLDRUAIAYio+q/SsAQPz7CBYaKgBADMVH1f4VACD+fQQLDRX4B6nqBTKId0QHAAAAAElFTkSuQmCC;" parent="1" vertex="1">
          <mxGeometry x="230" y="325" width="50" height="50" as="geometry" />
        </mxCell>
        <mxCell id="MhotOzjmQ4NwVa9XO380-17" value="" style="shape=image;verticalLabelPosition=bottom;labelBackgroundColor=default;verticalAlign=top;aspect=fixed;imageAspect=0;image=data:image/png,iVBORw0KGgoAAAANSUhEUgAAAMgAAADICAYAAACtWK6eAAAAAXNSR0IArs4c6QAACGNJREFUeF7tndF13EYMRUedqBOrE0sdTCnbgZJK4k6sTpzQR3EcSat9xIDkEO/urwFycB+u6RNRm7vGBwIQuErgDjYQgMB1AgjCdkDgEwIIwnpAAEHYAQjECPAEiXGjy4QAgpgEzZgxAggS40aXCYE0QXrvD62159ba0+Vy+WbCjzGLE0gR5FWOv15ZvSBJ8a0xGm9YkDdy/IsOSYyWqPKoQ4JckQNJKm+M2WxhQW7IgSRmi1R13JAgohxIUnVrjOZaLchKOZDEaJkqjrpKkKAcSFJxc0xmkgUZlANJTBaq2piSIElyIEm17TGY56YgyXIgyY2l6r0vbyMsbyXwmYCAIsiPjc7JDxM/ANt7X95IQJCNlm7tZRVB7ltr39deWKxHkjegEETcnJ3KbgqynKP3jiQ7BdJ7X/4yWnjzmYCAJAiS7JcUguzHWrmTLAiSKDjHaxBknGHmFVYJgiSZ6D++FoJsz3jNHVYLgiRr8K6vRZD1zLbsCAmCJNtFgiDbsY1cOSwIkkRw3+5BkNuM9qwYEgRJ8qNCkHymI1ccFgRJRvC/7+29b/XmQu5BTa6WIgiS5G0LguSxzLhSmiBIkhHHz7cWeILkoEy5SqogSDKeCYKMM8y8QrogSDIWT+/9cewKdP9G4Ovom9GbCIIkLOkMBF5/t2boL5zNBEGSGVbE+wzTC4Ik3gt69PSnEARJjl4T3/ufRhAk8V3SIyc/lSBIcuSqeN77dIIgieeiHjX1KQVBkqPWxe++pxUESfyW9YiJTy0IkhyxMl73PL0gSOK1sHtPW0IQJNl7bXzuV0YQJPFZ2j0nLSUIkuy5Oh73KicIkngs7l5TlhQESfZan/r3KSsIktRf3j0mLC0IkuyxQrXvUV4QJKm9wFtPZyEIkmy9RnWvbyMIktRd4i0nsxIESbZcpZrXthMESWou8lZTWQqCJFutU73r2griLMnrF8t9GVnny+XyNNJ/ll5rQVwlyQj9crls+n1oswiUwer0oNz+F9UZoSOIrvDpBXF7kiCIvtwZrEoI4iRJRug8QXTJygjiIgmC6MudwaqUIA6SZITOE0SXrJwg1SVBEH25M1iVFKSyJBmh8wTRJSsrSFVJEERf7gxWpQWpKElG6DxBdMnKC1JNEgTRlzuDlYUglSTJCJ0niC6ZjSBVJEEQfbkzWFkJUkGSjNB5guiS2QlydkkQRF/uDFaWgpxZkozQeYLoktkKclZJEERf7gxW1oKcUZKM0HmC6JLZC3I2SRBEX+4MVgjyyvssv5mYETpPEF0yBPmN1RkkQRB9uTNYIcgb3rNLkhE6TxBdMgT5gNXMkiCIvtwZrBDkCu9ZJckInSeILhmCfMJqRkkQRF/uDFYIcoP3bJJkhM4TRJcMQQRWM0mCIEJg//2n++fW2qPe8b4SQUR6s0iCIGJgrbUMVgii816A37fWvq9oWVP60lp7ulwu3z5rygidf2LpsSCIzupn5dGSIIgeWAYrBNF5/6o8UpKM0HmC6KEjiM7qf5VHSYIgemAZrBBE5/2u8ghJMkLnCaKHjiA6qw8r95YEQfTAMlghiM77auWekmSEzhNEDx1BdFafVu4lCYLogWWwQhCd983KPST55+cwX0d/OswT5GaUvwoQRGclVe4gyXKO5QeW4Q+C6OgQRGclV24siXyOa4UIoiNEEJ3VqsqZJUEQPUoE0VmtrpxVEgTRo0QQnVWockZJEESPEkF0VuHK2SRBED1KBNFZDVXOJAmC6FEiiM5quHIWSRBEjxJBdFYplTNIgiB6lAiis0qrPFoSBNGjRBCdVWrlkZIgiB4lguis0iuPkgRB9CiHBem9P7y+QKff9X3ln7e+rGDk4ktv7335+pcvo9fZoH95r2phuNsHQXTUGYIsi7d8/9DIZ/k2jz9GLnCrN+PV51v3OMufI4ieFILorMpUIogeJYLorMpUIogeJYLorMpUIogeJYLorMpUIogeJYLorMpUIogeJYLorMpUIogeJYLorMpUIogeJYLorMpUIogeJYLorMpUIogeJYLorMpUIogeJYLorMpUIogeJYLorMpUIogeJYLorMpUIogeJYLorMpUIogeJYLorMpUIogepY0gOhIqqxDI+B0gBKmyDczxjgCCsBQQ+IQAgrAeEEAQdgACMQI8QWLc6DIhgCAmQTNmjACCxLjRZUIAQUyCZswYAQSJcaPLhACCmATNmDECCBLjRpcJAQQxCZoxYwQQJMaNLhMCCGISNGPGCCBIjBtdJgQQxCRoxowRQJAYN7pMCCCISdCMGSOAIDFudJkQQBCToBkzRgBBYtzoMiGAICZBM2aMAILEuNFlQgBBTIJmzBgBBIlxo8uEAIKYBM2YMQIIEuNGlwkBBDEJmjFjBBAkxo0uEwIIYhI0Y8YIIEiMG10mBBDEJGjGjBFAkBg3ukwIIIhJ0IwZI4AgMW50mRBAEJOgGTNGAEFi3OgyIYAgJkEzZowAgsS40WVCAEFMgmbMGAEEiXGjy4QAgpgEzZgxAggS40aXCQEEMQmaMWMEECTGjS4TAghiEjRjxgggSIwbXSYEEMQkaMaMEUCQGDe6TAggiEnQjBkjgCAxbnSZEEAQk6AZM0YAQWLc6DIhgCAmQTNmjACCxLjRZUIAQUyCZswYAQSJcaPLhEAlQb611l5McmPM/Qg8tNbuR253N9K89PbeH1trz6PXoR8CMxJAkBlT4UzTEECQaaLgIDMSQJAZU+FM0xBAkGmi4CAzEkCQGVPhTNMQQJBpouAgMxJAkBlT4UzTEECQaaLgIDMSQJAZU+FM0xBAkGmi4CAzEkCQGVPhTNMQQJBpouAgMxJAkBlT4UzTEECQaaLgIDMSQJAZU+FM0xD4G79ENi2p1XuRAAAAAElFTkSuQmCC;" parent="1" vertex="1">
          <mxGeometry x="70" y="510" width="40" height="40" as="geometry" />
        </mxCell>
        <mxCell id="MhotOzjmQ4NwVa9XO380-18" value="" style="shape=image;verticalLabelPosition=bottom;labelBackgroundColor=default;verticalAlign=top;aspect=fixed;imageAspect=0;image=data:image/png,iVBORw0KGgoAAAANSUhEUgAAAMgAAADICAYAAACtWK6eAAAAAXNSR0IArs4c6QAAEDpJREFUeF7tnW9y2zgSxcmS7rHJSRKfxPEhxCp/ivMpVfQh1jlJnJOM9h5ScdMc0kXLJLvRaBAg8FQ1NbtjEQ08vB/xV0BdBf78/Pnz0/F4vO+67lNVVd8Ch0PyHxU4V1X1WlXVn7quz6fTif43PkIFauH3VF97fn7+3nXdk+phPBRKgXNd1y+n0+lHqAA5pRsEkOfn569d1/23qipqNfBJU4Hz9Xq9e3x8pBYGnwUFggDStm0HxXehAFoTpprMAWnb9vffPu/XXdgDmewVqOv6CV2ueTOYAtK2LQ3CqWuFz84UACTbAEJwYKZqZ3CM2QUkHyvOugX5BwPzndIxZBuQvK8/a0AwON83HxiT3NSfGSDD1C4N0PHJQAG0JP9WIgDJwMyhigBIAEgob2WTbumQRG9BqAKycVOkggz73GjXwviPaU5KhiQqICULb+rgSWKTzaGmL55S6yo2IHfYXRoGlRCglAgJAAnjz2RStd5RXRokACQZK4fLiPUWoJIgASDhfJlUymhJdNUBQHS67e4pGpMcDgfaK2e207qElgSA7M7q+gyH2O2QOyQARO+3XT4Z4vc6OUMCQHZpc32mrcciY05yhQSA6L22yydDdLNyhgSA7NLm+kwPg3X63U6QT24tCQAJYpN0Ew0NCJU8J0gASLpeDpazLU6dyQUSABLMhukmvAUgubQkACRdHwfL2VaA5AAJAAlmw3QT3hKQvUMCQNL1cbCcbQ3IniEBIMFsmG7CCkBeLM472+PAHYCk6+NgOXMFhIx9uVx+HQ4H7/WTvUECQILZMN2ENYDQ2b1Wayh7ggSApOvjYDnTAkIZKg0SABLMhukm7ANIaZAAkHR9HCxnvoCUBAkACWbDdBO2AKQUSABIuj4OljMrQEqABIAEs2G6CVsCkjskACRdHwfLmTUgOUMCQILZMN2EQwCSKyQAJF0fB8tZKEByhASABLNhugmHBCQ3SABIuj4OljNXQP5uVKT71B9cMjRcyeB943HsbSkAxKXWM/muApCoJY8JCQCJWvVxgu8NEFIpFiQAJI5Ho0bdIyCxIAEgUa0aJ/heAYkBCQCJ49GoUfcMyNaQAJCoVo0TfO+AbAkJAInj0ahRcwBkK0gASFSrxgmeCyBbQAJA4ng0atScAAkNCQCJatU4wdu2pdNJPsWJHiRqv9If4kpxABKkvtJOtG1b2gLyLe1cOufu3DTNZ+enmAcAiLWiO0iPTiY5Ho/3Xdc97SC7Lll8aZrGac8YlzgA4RTK+O8DKJt3tYaNjKTsveWtu+OmSsuuFgDJGIA9FM26NbPeswVA9uCiAvJoCMpr0zR3VpIBECslkY6JAga38JoO1gGISbUiEUsFfCFpmsbM12YJaa4Xruv6znJAZVlJSCuuAj6QWPoKgMT1AaIvKOBzSDYAga2KUKBtW1rMdP5dOwApwh4opLYVASDwTjEKtG3723UxEYAUYw8UVDNYByDwTTEKaMYhAKQYe6CgsZcPMM0LDyatAAA5nV6TriFkLqoCAASARDVg6sEBCABJ3aNR8wdAAEhUA6YeHIAAkNQ9GjV/AASARDVg6sEBCABJ3aNR8wdAAEhUA6YeHIAAkNQ9GjV/AASARDVg6sEBCABJ3aNR8wdAAEhUA6YeHIAAkNQ9GjV/AASARDVg6sEBCABJ3aNR8wdAAEhUA6YeHIAAkNQ9GjV/AASARDVg6sEBCABJ3aNR85cNIJrTJ6qqemia5iVqDSB40grE9tXboQ3DKXZfNWrVdf0f5XVedPniS9d1/9PExTN5KxDLV3Vdn8dD1esBDDr/VAVH3lWE0hWswPl6vd7Vmd54WnC9ouiGCrwSILndmW2oD5IqXIEzAdIVLgKKDwUWFQAgMAcUWFEAgMAeUACAwANQQKcAWhCdbniqEAUASCEVjWLqFAAgOt3wVCEKAJBCKhrF1CkAQHS64alCFFABUtf10+Vy+VWIRihmBgocDgfaa+h+57piJf2laZqHDDRDEQpTQLPv0LkFodbjdDr9KExbFDcDBVRXSru2IAAkA6cUWgQAUmjFo9gyBQCITCd8q1AFAEihFY9iyxQAIDKd8K1CFcgSEPrNPFefj4+PZ+47a3+nGMfjkeJ86bqO/j3GpH+Paff/ph/00yEToU9jGfJ0TzFv8jQWhQ68CJYXie6UEV/tx8Jw8SziZAmI4CfBr03T3LkCMhqw67pvEyBckyFoXuu6/jWeguGawPT7nnnqT4ihBVwLM7Vt+1twkAfFfLAoOxfPYvYUgAjdqRGKSdpr8XQ4Web739aKYPX99KD4rlVxhp1k8tw0zWffTHPxAMiCwpYtyGBEOqTC+qMGJACs0y6YGhTOsFMBLczLxbOIodE6+ZV0K0A0R1g6UOQMyEbnkalbE86wN9p4d7W4eAAkYAsSsOUYc+0EyEZwvCmqMRdn2Jnq8upqcfE0ZbjNI1qQZcgkA06HBuPDV8WAbADrbDlcDcYZdi6Ia4xpGlw8n7THOABkptYcDz9+OyuYplAvl0s/tUtTwMNU65chBG2dnk4/iwHhjLBA6bup5iE2O/3t0w3S5pOO69TMonHxAEigLpbDFmexyScHfdPMExlV9KzrG4xMUVXVn7lp1EkeaK1Eeq6yuBvEGXaluVVNu3PxAEg4QCQnR4oMfpvF0aR0Cjk3reo4SfB6vV4fJG/iydoJwST5iMrKGZYJ5HytBRcPgEQE5Hq9fpaYUeK+pe9wBpg8p30D0xqK5Bdz/anlXHkd8jtXZFEMjEF8HDU86zPNKx0QN03zdk+KQZY/JOHQeqjgGAM6jLfYVsQTEMoSGwOAGLhtC0Dqur6z2C7h23r45mN4IdCMHTeAZ8ciAkDoZjBu5V/c1eLioYsVoIslbUFc33au3At/ten0xl2BUdTV4mDkDEvX51VVxU0QsCBOWr/VqXgAEgAQSlJQ0X1kiwqYK4K028MZVgql9KXAlZfTbTzZ5nA4cFt3ROBL4nETIZxGrrOIvS+Eb7e32JywXCZd/+7TxXIBZMiX95aJ2/IJp5lFJpJqJzTC6nhHaljJC0ACvzSeVIO57wl1efdo9oBI36g3gr5YbWEXAE6hxX11iUGkkwJrkxNSwwq3zbBdLWk8SfmXvgNAlrtpNP3JDSjnnvYGRdhCmwIifSmsTW+7GFYYb7WVdImnhQSALCgnrMA13dVdLwkg1usw0vKudX1cDSvoaq1q6BpPAwkAWVFNahpG+Jfr9fqDW2Qb05DGDLEOI+naWQLi29UCIBrk/52F4m7hFS+uOawTrLYm9DNbyfGrFmMBpWzS2bvFrp3GsJIXwtIkjyaeqzZoQQSKGUFCkdjtFIJuR5+OxU9WZ2bPJFv8TQGhPAhMONvVAiAC8859xbIFmXZ9jsfjveeBDSwkwhYkFCBcy0trP4s7CLSG1Xa1tPFcbCWA90Ny2U/zrgmo2Ak7l9zi4FMISGU9SKdMCl4sq3F9DKvpavnEk0ICQKRK3XzP87gdSm12HCQxCj0sWUhzLZrv7JmvYQVmfPdi8Y0n0UeQJ7QgnJDDuIHbY/RRyJnuihSQPS8ULukp7Gq9vVi4HQcWOzhyBYT7wZN4FouDY/r3AZTxF4OSR2fHEtybcWhBTO9cEU4OBF+4E3Yx+4kCACKx2EzXx2oznCJ85ThGUQNiPZMlgZLbwcylIX2jC97a/Wzg4XBYPThPGm+tngV52VcXS/gGMt3od6uQsKvQPzY32BaWgR432W5iFc8KEOG0Oh3f+tp13eLPhgHIDPqSroKFcFzrIh1LzA22pc9atSKcsceycqv3XDouuguhfV07fMIl3lJ9ZteCcJU0CGHy5uUg8cmL8FnvVkRoRIrDtrpcnl0Ny40xOP1d482llyMg3ACdXUOgVsjiqgLJusJSN8nBuOzq/JqROFOPz0rWXbi0XA0r7GotFs81XvaASN84gq5C5yuutJvks318UqHOkLiMkyStB+XFGhBK0+FFMTeN7j3Tt4sWhESii2rWfj7JVc5EPUlXYWyFgh/kvAaroznEeZWM06Zuk7QeoQAZ0lX9Nsf3JTcA+n1tImCu1dl8q8mkQvvLZ+jkwOGmpE90AJvL/ihJZc+sKPfmWzqxcBRJsbrOwqp4g73TaMwbHYM6aCU9LK5/1GXFnntJaQ2r7Wpp401Nr9B/+9+ku77xVvrcrCGHN9baOIYMOHfuLT0qPc5TbD7HrhA3bnX6u6vBQgEy1Ino5JVpAV3zv9sxiBUgktZDAIiTyVa+LF7N175BPTMqzt8YJyQgki7cbXkBiIMDHLsK7EyYQ+i5r2oH1VZXrnHZF7W0t4mEBkQ68THmC4Bw1Tz83VUoya5WYehZOLSXWDpuY9FmUb1GFBoQ166Wa72X2sVyrvCAgDh3W+YqTbEpUgKL+HT4pcS2AMSlqwVA1qtdXeGK2SjOgOoTTpYSNsyjWd62AkTa1SoGkIkZaJZobabI9N5vMudNbDrgmTvkmR4b70I/+x59yZE3k0duJq2fhaONftZ5G6ZEF/WxOlhv0tUab++alcki3i6meaelJ8PS/6crzsb/TteeSY/VkRiO+840D8P6Qj/tu3U+1lqX2BpxGu7l77sDZC/CIp95KABA8qhHlCKQAgAkkLBINg8FAEge9YhSBFIAgAQSFsnmoQAAyaMeUYpACgCQQMIi2TwU2ASQpVME85AQpchZAW53wFzZnX8wNSQy/ugoZz1RtowUoEVgzS1jWkAykg5FgQLLCgAQuAMKrCgAQGAPKABA4AEooFMALYhONzxViAIApJCKRjF1CgAQnW54qhAFAEghFY1i6hQAIDrd8FQhChAgkvu0C5EDxYQC7xWoNRu4ICIUKEEBOkmldjhlpARNUEYoQAq8na5fW+nheLx/H9blCFGrfCKd/Sjgedg33Xv443Q60Q0C6o8ZINIDwG5y6nxSorqkeHCXCmhevJY/yTADhNR3PebT4rS8XdY6Mi1WQAmI2YvXGpB/hKcVjgLN3i0uVg9fzF4BDSCWXXdrQJynjC0Lk71bCixgboBo7p9T3V9RoFeKLHJWgGgKM0ypPfjONhTpngIKrfGUZa/EtIulnMnq552bpvlcQH2jiI4KZAXIMJPlPA4ZNENXy9E8JXw9O0A0BZpUNCApwfUOZdT4KdkuFpXbc/Wz725p7/1z0B1f3YkC2QFCumsKNVNfL1VV/Wmahv6NT6EKaDbTJt2CjPVouI2+v2Zs+If2b/U3QOFThgJd1z25lnQXgBi1Iq7a4PtQwHQTrOk0723daJpH1C8U8FVgFy2I0YDdVys8X6ACuwFkAgmtjUiuXC6wOlFkawWu1+tnq5uSg3axxoIPU7+AxNoJSG9WgaZpzHxtlhBXV4CEUwh/N1LAdLF5M0DG7tbxeLzXTN0ZiYdkMlfAcvxBUm0KyFg3mN3K3KXxivfaNM2dZfgogKA1saxCpDUqYDn2GNOMBsjNAJ5+aPUVVQ0FlAoE278XHZApKMP4hEABLEqnFPiY6aD8Vr9kAJlmbJjxIki+DP+d1lDGfwr0AIo8UYD24tGZV+fL5fLLar1jSeH/A46LI8wWPNivAAAAAElFTkSuQmCC;" parent="1" vertex="1">
          <mxGeometry x="640" y="190" width="40" height="40" as="geometry" />
        </mxCell>
      </root>
    </mxGraphModel>
  </diagram>
</mxfile>
